<?xml version="1.0" encoding="UTF-8" standalone="no"?>
<!-- Created with Inkscape (http://www.inkscape.org/) -->

<svg
   xmlns:dc="http://purl.org/dc/elements/1.1/"
   xmlns:cc="http://creativecommons.org/ns#"
   xmlns:rdf="http://www.w3.org/1999/02/22-rdf-syntax-ns#"
   xmlns:svg="http://www.w3.org/2000/svg"
   xmlns="http://www.w3.org/2000/svg"
   xmlns:xlink="http://www.w3.org/1999/xlink"
   xmlns:sodipodi="http://sodipodi.sourceforge.net/DTD/sodipodi-0.dtd"
   xmlns:inkscape="http://www.inkscape.org/namespaces/inkscape"
   width="700"
   height="700"
   id="svg7904"
   version="1.1"
   inkscape:version="0.48.2 r9819"
   sodipodi:docname="Energia.svg"
   inkscape:export-filename="/Users/robertinant/ArduinoUpstream/build/shared/icons/16x16/apps/energia.png"
   inkscape:export-xdpi="2.0599999"
   inkscape:export-ydpi="2.0599999">
  <defs
     id="defs3">
    <linearGradient
       inkscape:collect="always"
       id="linearGradient4181">
      <stop
         style="stop-color:#000000;stop-opacity:1;"
         offset="0"
         id="stop4183" />
      <stop
         style="stop-color:#000000;stop-opacity:0;"
         offset="1"
         id="stop4185" />
    </linearGradient>
    <linearGradient
       inkscape:collect="always"
       id="linearGradient4173">
      <stop
         style="stop-color:#760000;stop-opacity:1"
         offset="0"
         id="stop4175" />
      <stop
         style="stop-color:#ff0000;stop-opacity:1"
         offset="1"
         id="stop4177" />
    </linearGradient>
    <linearGradient
       inkscape:collect="always"
       xlink:href="#linearGradient4173"
       id="linearGradient4179"
       x1="450.97098"
       y1="597.68488"
       x2="630.3963"
       y2="317.33276"
       gradientUnits="userSpaceOnUse" />
    <linearGradient
       inkscape:collect="always"
       xlink:href="#linearGradient4181"
       id="linearGradient4187"
       x1="310.48721"
       y1="813.74939"
       x2="492.9678"
       y2="813.74939"
       gradientUnits="userSpaceOnUse" />
    <linearGradient
       inkscape:collect="always"
       xlink:href="#linearGradient4181"
       id="linearGradient4189"
       gradientUnits="userSpaceOnUse"
       x1="310.48721"
       y1="813.74939"
       x2="492.9678"
       y2="813.74939" />
    <linearGradient
       inkscape:collect="always"
       xlink:href="#linearGradient4181"
       id="linearGradient4191"
       gradientUnits="userSpaceOnUse"
       x1="310.48721"
       y1="813.74939"
       x2="492.9678"
       y2="813.74939" />
    <linearGradient
       inkscape:collect="always"
       xlink:href="#linearGradient4181"
       id="linearGradient4193"
       gradientUnits="userSpaceOnUse"
       x1="310.48721"
       y1="813.74939"
       x2="492.9678"
       y2="813.74939" />
    <linearGradient
       inkscape:collect="always"
       xlink:href="#linearGradient4181"
       id="linearGradient4195"
       gradientUnits="userSpaceOnUse"
       x1="310.48721"
       y1="813.74939"
       x2="492.9678"
       y2="813.74939" />
    <linearGradient
       inkscape:collect="always"
       xlink:href="#linearGradient4181"
       id="linearGradient4197"
       gradientUnits="userSpaceOnUse"
       x1="310.48721"
       y1="813.74939"
       x2="492.9678"
       y2="813.74939" />
    <linearGradient
       inkscape:collect="always"
       xlink:href="#linearGradient4181"
       id="linearGradient4199"
       gradientUnits="userSpaceOnUse"
       x1="310.48721"
       y1="813.74939"
       x2="492.9678"
       y2="813.74939" />
    <linearGradient
       inkscape:collect="always"
       xlink:href="#linearGradient4181"
       id="linearGradient4203"
       gradientUnits="userSpaceOnUse"
       x1="310.48721"
       y1="813.74939"
       x2="492.9678"
       y2="813.74939" />
    <linearGradient
       inkscape:collect="always"
       xlink:href="#linearGradient4181"
       id="linearGradient4215"
       gradientUnits="userSpaceOnUse"
       x1="310.48721"
       y1="813.74939"
       x2="492.9678"
       y2="813.74939" />
    <linearGradient
       inkscape:collect="always"
       xlink:href="#linearGradient4181"
       id="linearGradient4486"
       gradientUnits="userSpaceOnUse"
       x1="310.48721"
       y1="813.74939"
       x2="492.9678"
       y2="813.74939" />
    <linearGradient
       inkscape:collect="always"
       xlink:href="#linearGradient4181"
       id="linearGradient4488"
       gradientUnits="userSpaceOnUse"
       x1="310.48721"
       y1="813.74939"
       x2="492.9678"
       y2="813.74939" />
    <linearGradient
       inkscape:collect="always"
       xlink:href="#linearGradient4181"
       id="linearGradient4491"
       gradientUnits="userSpaceOnUse"
       x1="310.48721"
       y1="813.74939"
       x2="492.9678"
       y2="813.74939"
       gradientTransform="matrix(-3.2426139,1.4992521,1.4992521,3.2426139,457.93166,577.4243)" />
    <linearGradient
       inkscape:collect="always"
       xlink:href="#linearGradient4181"
       id="linearGradient4493"
       gradientUnits="userSpaceOnUse"
       x1="310.48721"
       y1="813.74939"
       x2="492.9678"
       y2="813.74939" />
    <linearGradient
       inkscape:collect="always"
       xlink:href="#linearGradient4181"
       id="linearGradient4495"
       gradientUnits="userSpaceOnUse"
       x1="310.48721"
       y1="813.74939"
       x2="492.9678"
       y2="813.74939" />
    <linearGradient
       inkscape:collect="always"
       xlink:href="#linearGradient4181"
       id="linearGradient4498"
       gradientUnits="userSpaceOnUse"
       x1="310.48721"
       y1="813.74939"
       x2="492.9678"
       y2="813.74939"
       gradientTransform="matrix(-3.2426139,1.4992521,1.4992521,3.2426139,579.67895,389.54908)" />
    <linearGradient
       inkscape:collect="always"
       xlink:href="#linearGradient4181"
       id="linearGradient4500"
       gradientUnits="userSpaceOnUse"
       x1="310.48721"
       y1="813.74939"
       x2="492.9678"
       y2="813.74939" />
    <linearGradient
       inkscape:collect="always"
       xlink:href="#linearGradient4181"
       id="linearGradient4502"
       gradientUnits="userSpaceOnUse"
       x1="310.48721"
       y1="813.74939"
       x2="492.9678"
       y2="813.74939" />
    <linearGradient
       inkscape:collect="always"
       xlink:href="#linearGradient4181"
       id="linearGradient4505"
       gradientUnits="userSpaceOnUse"
       x1="310.48721"
       y1="813.74939"
       x2="492.9678"
       y2="813.74939"
       gradientTransform="matrix(-3.2426139,1.4992521,1.4992521,3.2426139,542.75078,361.15396)" />
  </defs>
  <sodipodi:namedview
     inkscape:document-units="mm"
     id="base"
     pagecolor="#ffffff"
     bordercolor="#666666"
     borderopacity="1.0"
     inkscape:pageopacity="0.0"
     inkscape:pageshadow="2"
     inkscape:zoom="0.7"
     inkscape:cx="69.577975"
     inkscape:cy="298.07618"
     inkscape:current-layer="g4531"
     showgrid="false"
     inkscape:window-width="1440"
     inkscape:window-height="804"
     inkscape:window-x="0"
     inkscape:window-y="0"
     inkscape:window-maximized="1"
     units="px"
     inkscape:snap-nodes="true"
     inkscape:snap-global="true"
     fit-margin-top="0"
     fit-margin-left="0"
     fit-margin-right="0"
     fit-margin-bottom="0" />
  <metadata
     id="metadata4">
    <rdf:RDF>
      <cc:Work
         rdf:about="">
        <dc:format>image/svg+xml</dc:format>
        <dc:type
           rdf:resource="http://purl.org/dc/dcmitype/StillImage" />
        <dc:title></dc:title>
      </cc:Work>
    </rdf:RDF>
  </metadata>
  <g
     inkscape:groupmode="layer"
     id="layer5"
     inkscape:label="Merge"
     style="display:inline"
     transform="translate(-315.72389,-15.54485)">
    <g
       id="g4531">
      <path
         transform="matrix(1.0191266,0,0,1.0191266,88.974908,-39.307787)"
         d="m 800.00002,411.95163 a 223.57143,223.57143 0 1 1 -447.14286,0 223.57143,223.57143 0 1 1 447.14286,0 z"
         sodipodi:ry="223.57143"
         sodipodi:rx="223.57143"
         sodipodi:cy="411.95163"
         sodipodi:cx="576.42859"
         id="path3342"
         style="fill:url(#linearGradient4179);fill-opacity:1;fill-rule:evenodd;stroke:none;display:inline"
         sodipodi:type="arc" />
      <g
         id="g4507"
         transform="translate(132.85714,-22.857143)">
        <path
           style="fill:#ffffff;fill-opacity:1;stroke:#000000;stroke-width:1px;stroke-linecap:butt;stroke-linejoin:miter;stroke-opacity:1"
           d="m 605.71428,198.3802 c 0,0 -11.42857,1.42857 -37.14285,62.85714 -25.71429,61.42857 -24.28572,62.85715 -24.28572,62.85715 l 58.57143,37.14285 c 0,0 40,-27.14286 64.28571,-67.14285 24.28572,-40 24.28572,-40 24.28572,-40 z"
           id="path4309"
           inkscape:connector-curvature="0" />
        <path
           style="fill:#ffffff;fill-opacity:1;stroke:#000000;stroke-width:1px;stroke-linecap:butt;stroke-linejoin:miter;stroke-opacity:1"
           d="m 477.14285,339.80877 c 0,0 42.85715,-88.57143 70,-92.85714 27.14286,-4.28572 28.57143,-4.28572 28.57143,-4.28572 l -21.42857,47.14286 c 0,0 -6.26969,27.33928 -8.23993,30.75183 -1.97023,3.41255 -3.18864,4.96246 -3.18864,4.96246 l -15.71429,-8.57143 -12.85714,0 z"
           id="path4311"
           inkscape:connector-curvature="0" />
        <path
           style="fill:#ffffff;fill-opacity:1;stroke:#000000;stroke-width:1px;stroke-linecap:butt;stroke-linejoin:miter;stroke-opacity:1"
           d="m 662.85714,296.95163 c 0,0 -5.71429,15.71428 -30,40 -24.28572,24.28571 -27.14286,24.28571 -27.14286,24.28571 l 15.71429,18.57143 c 0,0 7.14285,-10 1.42857,21.42857 -5.71429,31.42857 -5.71429,31.42857 -5.71429,31.42857 0,0 55.71429,-61.42857 54.28572,-84.28571 -1.42857,-22.85714 7.14285,-30 0,-40 -7.14286,-10 -8.57143,-11.42857 -8.57143,-11.42857 z"
           id="path4313"
           inkscape:connector-curvature="0" />
        <path
           style="fill:#ffffff;fill-opacity:1;stroke:#000000;stroke-width:1px;stroke-linecap:butt;stroke-linejoin:miter;stroke-opacity:1"
           d="m 644.28571,138.3802 c 0,0 42.85714,-55.714285 68.57143,-59.999999 25.71428,-4.285714 22.85714,-8.571429 25.71428,-4.285714 2.85715,4.285714 24.28572,27.142853 2.85715,72.857143 C 720,192.66591 720,194.09449 720,194.09449 c 0,0 5.71428,-17.14286 -31.42858,-31.42858 -37.14285,-14.28571 -44.28571,-11.42857 -44.28571,-11.42857 z"
           id="path4315"
           inkscape:connector-curvature="0" />
        <path
           inkscape:connector-curvature="0"
           id="path7061-1"
           style="fill:url(#linearGradient4491);fill-opacity:1;fill-rule:nonzero;stroke:#000000;stroke-width:3.57243633;stroke-opacity:1"
           d="m 457.93166,577.4243 c 48.43909,-57.55875 75.40671,-106.84695 90.1517,-164.82205 L 541.452,410.9178 c -14.47749,56.91076 -41.0175,105.38727 -88.75155,162.10444 l 5.23121,4.40206 z" />
        <path
           inkscape:connector-curvature="0"
           id="path7065-2"
           style="fill:url(#linearGradient4498);fill-opacity:1;fill-rule:nonzero;stroke:#000000;stroke-width:3.57243633;stroke-opacity:1"
           d="m 579.67895,389.54908 c -21.42132,111.19233 -62.91392,184.07302 -152.54724,267.21568 -2.50837,-8.55774 -2.69572,-19.57796 -0.70143,-35.50727 l -6.23483,-2.31648 c -21.05015,31.71422 -58.84149,62.58094 -83.01835,80.50137 6.1488,-62.88763 26.72636,-130.79741 58.29879,-192.10537 29.62782,-57.51209 65.86175,-103.8349 99.39436,-127.10041 l -3.89591,-5.62556 c -34.43242,23.89015 -71.45668,71.12544 -101.5709,129.59449 -33.25368,64.54124 -54.44564,136.3403 -59.70644,202.17853 l -0.59309,7.37441 6.00003,-4.32881 c 21.47307,-15.48563 58.93415,-44.75127 83.32558,-76.32976 -0.61877,10.72385 0.0217,21.71956 4.11969,31.03399 l 1.93166,4.36511 3.51441,-3.22679 c 49.51895,-45.40835 84.12618,-87.14556 108.89658,-131.32855 23.10193,-41.21144 38.37303,-85.3396 49.49903,-143.09768 l -6.71194,-1.2969 z" />
        <path
           inkscape:connector-curvature="0"
           id="path7069-6"
           style="fill:url(#linearGradient4505);fill-opacity:1;fill-rule:nonzero;stroke:#000000;stroke-width:3.57243633;stroke-opacity:1"
           d="m 542.75078,361.15396 -5.03749,-4.62151 -0.29919,0.32332 C 493.86227,404.23995 420.97846,483.56625 381.12412,619.13468 l 6.56316,1.92852 C 427.09204,487.02506 499.30292,408.43103 542.45783,361.48226 l 0.29295,-0.3283 z" />
        <path
           inkscape:connector-curvature="0"
           id="path7073-4"
           style="fill:#000000;fill-opacity:1;fill-rule:evenodd;stroke:#000000;stroke-width:3.5716536;stroke-miterlimit:4;stroke-opacity:1;stroke-dasharray:none;display:inline"
           d="m 744.04961,404.59189 c 0.80712,20.60073 -8.38465,53.67648 -24.85311,91.22263 -14.79969,-21.79415 -48.78216,-42.05532 -72.16153,-42.48239 26.39506,-32.23331 52.1799,-55.85239 71.16519,-64.57137 5.72747,-2.62847 13.65796,-5.11446 18.82135,-2.10188 l 0.27932,0.16998 c 5.1399,3.31076 6.49976,11.47854 6.74878,17.76303 m -63.91965,165.31555 c -25.47406,41.1629 -53.28897,74.66668 -79.02306,94.74368 l -19.03703,-11.70361 53.6298,-83.51453 -15.68722,-9.65116 -50.39181,85.51241 -18.91897,-11.64405 c 6.25937,-31.84194 23.45544,-71.54285 48.48394,-112.61388 l -0.72235,1.45963 c 24.79927,-4.08653 68.18223,21.65201 81.6667,47.41151 m -26.98252,115.80629 c -7.76528,15.06716 -18.19435,30.47645 -31.08331,45.93682 1.9491,-7.86363 3.49188,-15.14187 4.57055,-20.2573 0.3569,-1.68818 0.66133,-3.12382 0.90935,-4.23031 2.65314,-12.01869 -0.35689,-28.89699 -17.61678,-37.08895 l -0.15076,-0.0877 c 18.70371,-15.19307 37.6094,-36.46984 55.28626,-60.68525 6.94792,21.8626 2.96736,47.49893 -11.91531,76.41272 M 541.87957,628.23205 c -15.07282,-11.71028 -31.52715,-6.77882 -41.04592,1.02281 -0.88502,0.71619 -2.02566,1.63715 -3.37902,2.71944 -4.06404,3.27233 -9.86799,7.93161 -16.00735,13.2104 7.99128,-18.4856 17.0345,-34.73007 26.97093,-48.45534 19.08291,-26.34143 40.18047,-41.46452 62.81377,-45.12816 -13.64384,26.71551 -24.09762,53.18011 -29.20363,76.7313 l -0.14878,-0.10045 z m 200.53573,-249.49451 -0.45156,-0.28713 c -7.09685,-4.12983 -16.4334,-3.5953 -27.75887,1.60965 -39.09229,17.94873 -100.24241,91.00365 -139.10724,164.1453 -56.44881,5.23198 -90.28974,72.14645 -105.60921,112.26278 l 5.55484,3.69747 c 9.4678,-9.00997 20.25498,-17.6775 26.68859,-22.85619 1.37954,-1.10226 2.53663,-2.03871 3.43937,-2.75916 7.59436,-6.23489 20.70193,-10.18177 32.64157,-0.81302 l 28.33966,17.45451 -28.90747,49.05946 10.3692,6.36372 30.76634,-47.90773 28.12223,17.29921 0.3412,0.18465 c 13.73512,6.42507 16.13779,19.90421 14.0177,29.49207 -0.247,1.1257 -0.56165,2.5818 -0.91604,4.29243 -1.71441,8.08179 -4.58534,21.62987 -8.35519,34.15307 l 5.80707,3.2896 c 28.88896,-31.77665 73.31128,-92.15788 52.5366,-144.8957 47.75903,-67.72931 85.36654,-155.32047 83.68546,-198.30938 -0.48622,-12.43275 -4.22842,-20.99464 -11.20425,-25.47561"
           transform="translate(0,-308.2677)" />
        <path
           style="opacity:0;fill:#ffffff;fill-opacity:1;stroke:none;display:inline"
           d="m 609.28926,330.15234 c -5.4145,-3.43837 -9.70466,-6.82743 -9.53369,-7.53125 0.17097,-0.70381 9.09611,-14.93534 19.83364,-31.62562 22.14792,-34.4264 21.48163,-30.41226 6.44873,-38.85128 l -6.98203,-3.91949 -18.93053,31.96809 -18.93053,31.96809 -10.35131,-6.53546 -10.35131,-6.53545 3.48355,-9.37028 c 5.59032,-15.03722 20.01822,-45.44624 28.16889,-59.37028 l 7.52615,-12.85715 9.17266,0.25609 c 11.11416,0.31028 22.68292,4.65065 36.88713,13.8393 11.75508,7.60432 21.75989,16.44275 27.45075,24.25048 l 4.0006,5.48873 -11.19604,16.65413 c -13.96691,20.7758 -25.97986,36.29725 -37.74554,48.7695 l -9.10657,9.65344 -9.84455,-6.25159 0,0 z"
           id="path4228"
           inkscape:connector-curvature="0" />
        <path
           style="opacity:0;fill:#ffffff;fill-opacity:1;stroke:none;display:inline"
           d="m 609.28926,330.15234 c -5.4145,-3.43837 -9.70466,-6.82743 -9.53369,-7.53125 0.17097,-0.70381 9.09611,-14.93534 19.83364,-31.62562 22.14792,-34.4264 21.48163,-30.41226 6.44873,-38.85128 l -6.98203,-3.91949 -18.93053,31.96809 -18.93053,31.96809 -10.35131,-6.53546 -10.35131,-6.53545 3.48355,-9.37028 c 5.59032,-15.03722 20.01822,-45.44624 28.16889,-59.37028 l 7.52615,-12.85715 9.17266,0.25609 c 11.11416,0.31028 22.68292,4.65065 36.88713,13.8393 11.75508,7.60432 21.75989,16.44275 27.45075,24.25048 l 4.0006,5.48873 -11.19604,16.65413 c -13.96691,20.7758 -25.97986,36.29725 -37.74554,48.7695 l -9.10657,9.65344 -9.84455,-6.25159 0,0 z"
           id="path4230"
           inkscape:connector-curvature="0" />
        <path
           style="opacity:0;fill:#ffffff;fill-opacity:1;stroke:none;display:inline"
           d="m 609.28926,330.15234 c -5.4145,-3.43837 -9.70466,-6.82743 -9.53369,-7.53125 0.17097,-0.70381 9.09611,-14.93534 19.83364,-31.62562 22.14792,-34.4264 21.48163,-30.41226 6.44873,-38.85128 l -6.98203,-3.91949 -18.93053,31.96809 -18.93053,31.96809 -10.35131,-6.53546 -10.35131,-6.53545 3.48355,-9.37028 c 5.59032,-15.03722 20.01822,-45.44624 28.16889,-59.37028 l 7.52615,-12.85715 9.17266,0.25609 c 11.11416,0.31028 22.68292,4.65065 36.88713,13.8393 11.75508,7.60432 21.75989,16.44275 27.45075,24.25048 l 4.0006,5.48873 -11.19604,16.65413 c -13.96691,20.7758 -25.97986,36.29725 -37.74554,48.7695 l -9.10657,9.65344 -9.84455,-6.25159 0,0 z"
           id="path4232"
           inkscape:connector-curvature="0" />
        <path
           style="opacity:0;fill:#ffffff;fill-opacity:1;stroke:none;display:inline"
           d="m 609.28926,330.15234 c -5.4145,-3.43837 -9.70466,-6.82743 -9.53369,-7.53125 0.17097,-0.70381 9.09611,-14.93534 19.83364,-31.62562 22.14792,-34.4264 21.48163,-30.41226 6.44873,-38.85128 l -6.98203,-3.91949 -18.93053,31.96809 -18.93053,31.96809 -10.35131,-6.53546 -10.35131,-6.53545 3.48355,-9.37028 c 5.59032,-15.03722 20.01822,-45.44624 28.16889,-59.37028 l 7.52615,-12.85715 9.17266,0.25609 c 11.11416,0.31028 22.68292,4.65065 36.88713,13.8393 11.75508,7.60432 21.75989,16.44275 27.45075,24.25048 l 4.0006,5.48873 -11.19604,16.65413 c -13.96691,20.7758 -25.97986,36.29725 -37.74554,48.7695 l -9.10657,9.65344 -9.84455,-6.25159 0,0 z"
           id="path4234"
           inkscape:connector-curvature="0" />
        <path
           style="opacity:0;fill:#ffffff;fill-opacity:1;stroke:none;display:inline"
           d="m 711.52787,174.52388 c -12.88094,-13.22668 -38.34195,-27.74293 -52.68213,-30.03602 -3.20628,-0.5127 -5.8296,-1.49601 -5.8296,-2.18512 0,-0.68912 9.80357,-11.11078 21.78571,-23.15925 29.53692,-29.700425 48.91505,-42.319058 59.36195,-38.655251 10.84982,3.805117 9.20692,32.831271 -4.02771,71.160151 -5.49067,15.90155 -10.89875,29.4153 -11.77174,29.4153 -0.25719,0 -3.33361,-2.94291 -6.83648,-6.53981 z"
           id="path4236"
           inkscape:connector-curvature="0" />
        <path
           style="opacity:0;fill:#ffffff;fill-opacity:1;stroke:none;display:inline"
           d="m 609.28926,330.15234 c -5.4145,-3.43837 -9.70466,-6.82743 -9.53369,-7.53125 0.17097,-0.70381 9.09611,-14.93534 19.83364,-31.62562 22.14792,-34.4264 21.48163,-30.41226 6.44873,-38.85128 l -6.98203,-3.91949 -18.93053,31.96809 -18.93053,31.96809 -10.35131,-6.53546 -10.35131,-6.53545 3.48355,-9.37028 c 5.59032,-15.03722 20.01822,-45.44624 28.16889,-59.37028 l 7.52615,-12.85715 9.17266,0.25609 c 11.11416,0.31028 22.68292,4.65065 36.88713,13.8393 11.75508,7.60432 21.75989,16.44275 27.45075,24.25048 l 4.0006,5.48873 -11.19604,16.65413 c -13.96691,20.7758 -25.97986,36.29725 -37.74554,48.7695 l -9.10657,9.65344 -9.84455,-6.25159 0,0 z"
           id="path4238"
           inkscape:connector-curvature="0" />
        <path
           style="opacity:0;fill:#ffffff;fill-opacity:1;stroke:none;display:inline"
           d="m 609.28926,330.15234 c -5.4145,-3.43837 -9.70466,-6.82743 -9.53369,-7.53125 0.17097,-0.70381 9.09611,-14.93534 19.83364,-31.62562 22.14792,-34.4264 21.48163,-30.41226 6.44873,-38.85128 l -6.98203,-3.91949 -18.93053,31.96809 -18.93053,31.96809 -10.35131,-6.53546 -10.35131,-6.53545 3.48355,-9.37028 c 5.59032,-15.03722 20.01822,-45.44624 28.16889,-59.37028 l 7.52615,-12.85715 9.17266,0.25609 c 11.11416,0.31028 22.68292,4.65065 36.88713,13.8393 11.75508,7.60432 21.75989,16.44275 27.45075,24.25048 l 4.0006,5.48873 -11.19604,16.65413 c -13.96691,20.7758 -25.97986,36.29725 -37.74554,48.7695 l -9.10657,9.65344 -9.84455,-6.25159 0,0 z"
           id="path4240"
           inkscape:connector-curvature="0" />
        <path
           style="opacity:0;fill:#ffffff;fill-opacity:1;stroke:none;display:inline"
           d="m 609.28926,330.15234 c -5.4145,-3.43837 -9.70466,-6.82743 -9.53369,-7.53125 0.17097,-0.70381 9.09611,-14.93534 19.83364,-31.62562 22.14792,-34.4264 21.48163,-30.41226 6.44873,-38.85128 l -6.98203,-3.91949 -18.93053,31.96809 -18.93053,31.96809 -10.35131,-6.53546 -10.35131,-6.53545 3.48355,-9.37028 c 5.59032,-15.03722 20.01822,-45.44624 28.16889,-59.37028 l 7.52615,-12.85715 9.17266,0.25609 c 11.11416,0.31028 22.68292,4.65065 36.88713,13.8393 11.75508,7.60432 21.75989,16.44275 27.45075,24.25048 l 4.0006,5.48873 -11.19604,16.65413 c -13.96691,20.7758 -25.97986,36.29725 -37.74554,48.7695 l -9.10657,9.65344 -9.84455,-6.25159 0,0 z"
           id="path4242"
           inkscape:connector-curvature="0" />
        <path
           style="opacity:0;fill:#ffffff;fill-opacity:1;stroke:none;display:inline"
           d="m 609.28926,330.15234 c -5.4145,-3.43837 -9.70466,-6.82743 -9.53369,-7.53125 0.17097,-0.70381 9.09611,-14.93534 19.83364,-31.62562 22.14792,-34.4264 21.48163,-30.41226 6.44873,-38.85128 l -6.98203,-3.91949 -18.93053,31.96809 -18.93053,31.96809 -10.35131,-6.53546 -10.35131,-6.53545 3.48355,-9.37028 c 5.59032,-15.03722 20.01822,-45.44624 28.16889,-59.37028 l 7.52615,-12.85715 9.17266,0.25609 c 11.11416,0.31028 22.68292,4.65065 36.88713,13.8393 11.75508,7.60432 21.75989,16.44275 27.45075,24.25048 l 4.0006,5.48873 -11.19604,16.65413 c -13.96691,20.7758 -25.97986,36.29725 -37.74554,48.7695 l -9.10657,9.65344 -9.84455,-6.25159 0,0 z"
           id="path4244"
           inkscape:connector-curvature="0" />
        <path
           style="opacity:0;fill:#ffffff;fill-opacity:1;stroke:none;display:inline"
           d="m 609.28926,330.15234 c -5.4145,-3.43837 -9.70466,-6.82743 -9.53369,-7.53125 0.17097,-0.70381 9.09611,-14.93534 19.83364,-31.62562 22.14792,-34.4264 21.48163,-30.41226 6.44873,-38.85128 l -6.98203,-3.91949 -18.93053,31.96809 -18.93053,31.96809 -10.35131,-6.53546 -10.35131,-6.53545 3.48355,-9.37028 c 5.59032,-15.03722 20.01822,-45.44624 28.16889,-59.37028 l 7.52615,-12.85715 9.17266,0.25609 c 11.11416,0.31028 22.68292,4.65065 36.88713,13.8393 11.75508,7.60432 21.75989,16.44275 27.45075,24.25048 l 4.0006,5.48873 -11.19604,16.65413 c -13.96691,20.7758 -25.97986,36.29725 -37.74554,48.7695 l -9.10657,9.65344 -9.84455,-6.25159 0,0 z"
           id="path4246"
           inkscape:connector-curvature="0" />
        <path
           style="opacity:0;fill:#000000;fill-opacity:1;fill-rule:evenodd;stroke:none;display:inline"
           d="m 609.28926,330.15234 c -5.4145,-3.43837 -9.70466,-6.82743 -9.53369,-7.53125 0.17097,-0.70381 9.09611,-14.93534 19.83364,-31.62562 22.14792,-34.4264 21.48163,-30.41226 6.44873,-38.85128 l -6.98203,-3.91949 -18.93053,31.96809 -18.93053,31.96809 -10.35131,-6.53546 -10.35131,-6.53545 3.48355,-9.37028 c 5.59032,-15.03722 20.01822,-45.44624 28.16889,-59.37028 l 7.52615,-12.85715 9.17266,0.25609 c 11.11416,0.31028 22.68292,4.65065 36.88713,13.8393 11.75508,7.60432 21.75989,16.44275 27.45075,24.25048 l 4.0006,5.48873 -11.19604,16.65413 c -13.96691,20.7758 -25.97986,36.29725 -37.74554,48.7695 l -9.10657,9.65344 -9.84455,-6.25159 0,0 z"
           id="path4256"
           inkscape:connector-curvature="0" />
        <path
           style="opacity:0;fill:#000000;fill-opacity:1;fill-rule:evenodd;stroke:none;display:inline"
           d="m 609.28926,330.15234 c -5.4145,-3.43837 -9.70466,-6.82743 -9.53369,-7.53125 0.17097,-0.70381 9.09611,-14.93534 19.83364,-31.62562 22.14792,-34.4264 21.48163,-30.41226 6.44873,-38.85128 l -6.98203,-3.91949 -18.93053,31.96809 -18.93053,31.96809 -10.35131,-6.53546 -10.35131,-6.53545 3.48355,-9.37028 c 5.59032,-15.03722 20.01822,-45.44624 28.16889,-59.37028 l 7.52615,-12.85715 9.17266,0.25609 c 11.11416,0.31028 22.68292,4.65065 36.88713,13.8393 11.75508,7.60432 21.75989,16.44275 27.45075,24.25048 l 4.0006,5.48873 -11.19604,16.65413 c -13.96691,20.7758 -25.97986,36.29725 -37.74554,48.7695 l -9.10657,9.65344 -9.84455,-6.25159 0,0 z"
           id="path4258"
           inkscape:connector-curvature="0" />
        <path
           style="opacity:0;fill:#000000;fill-opacity:1;fill-rule:evenodd;stroke:none;display:inline"
           d="m 609.28926,330.15234 c -5.4145,-3.43837 -9.70466,-6.82743 -9.53369,-7.53125 0.17097,-0.70381 9.09611,-14.93534 19.83364,-31.62562 22.14792,-34.4264 21.48163,-30.41226 6.44873,-38.85128 l -6.98203,-3.91949 -18.93053,31.96809 -18.93053,31.96809 -10.35131,-6.53546 -10.35131,-6.53545 3.48355,-9.37028 c 5.59032,-15.03722 20.01822,-45.44624 28.16889,-59.37028 l 7.52615,-12.85715 9.17266,0.25609 c 11.11416,0.31028 22.68292,4.65065 36.88713,13.8393 11.75508,7.60432 21.75989,16.44275 27.45075,24.25048 l 4.0006,5.48873 -11.19604,16.65413 c -13.96691,20.7758 -25.97986,36.29725 -37.74554,48.7695 l -9.10657,9.65344 -9.84455,-6.25159 0,0 z"
           id="path4260"
           inkscape:connector-curvature="0" />
      </g>
    </g>
  </g>
</svg>
